HIERARCHY
ROOT Hips
{
	OFFSET 0.000000 0.000000 0.000000
	CHANNELS 6 Xposition Yposition Zposition Xrotation Yrotation Zrotation
	JOINT LeftUpLeg_virtual
	{
		OFFSET 0.000000 0.000000 0.000000
		CHANNELS 3 Xrotation Yrotation Zrotation
		JOINT LeftUpLeg
		{
			OFFSET 10.205400 -3.823500 0.155100
			CHANNELS 3 Xrotation Yrotation Zrotation
			JOINT LeftLeg
			{
				OFFSET 0.708757 -12.982077 0.567790
				CHANNELS 3 Xrotation Yrotation Zrotation
				JOINT LeftFoot
				{
					OFFSET -0.708756 -10.717838 -2.184338
					CHANNELS 3 Xrotation Yrotation Zrotation
					JOINT LeftToeBase
					{
						OFFSET 0.108149 -7.191104 7.560241
						CHANNELS 3 Xrotation Yrotation Zrotation
						JOINT LeftToe_End
						{
							OFFSET 0.070230 0.081724 4.490308
							CHANNELS 3 Xrotation Yrotation Zrotation
							End Site
							{
								OFFSET 0 0 0
							}
						}
					}
				}
			}
		}
	}
	JOINT RightUpLeg_virtual
	{
		OFFSET 0.000000 0.000000 0.000000
		CHANNELS 3 Xrotation Yrotation Zrotation
		JOINT RightUpLeg
		{
			OFFSET -10.205400 -3.823500 0.005500
			CHANNELS 3 Xrotation Yrotation Zrotation
			JOINT RightLeg
			{
				OFFSET -0.708756 -12.982134 0.610632
				CHANNELS 3 Xrotation Yrotation Zrotation
				JOINT RightFoot
				{
					OFFSET 0.708754 -10.717769 -1.945823
					CHANNELS 3 Xrotation Yrotation Zrotation
					JOINT RightToeBase
					{
						OFFSET -0.108140 -7.191069 7.372968
						CHANNELS 3 Xrotation Yrotation Zrotation
						JOINT RightToe_End
						{
							OFFSET -0.070227 0.081735 4.479403
							CHANNELS 3 Xrotation Yrotation Zrotation
							End Site
							{
								OFFSET 0 0 0
							}
						}
					}
				}
			}
		}
	}
	JOINT Spine_virtual
	{
		OFFSET 0.000000 0.000000 0.000000
		CHANNELS 3 Xrotation Yrotation Zrotation
		JOINT Spine
		{
			OFFSET 0.000000 6.876099 0.125700
			CHANNELS 3 Xrotation Yrotation Zrotation
			JOINT Spine1
			{
				OFFSET 0.000000 5.730043 0.104720
				CHANNELS 3 Xrotation Yrotation Zrotation
				JOINT Spine1_split
				{
					OFFSET 0.000000 5.730043 0.104720
					CHANNELS 3 Xrotation Yrotation Zrotation
					JOINT Spine2
					{
						OFFSET 0.000000 5.730043 0.104720
						CHANNELS 3 Xrotation Yrotation Zrotation
						JOINT Neck_virtual
						{
							OFFSET 0.000000 0.000000 0.000000
							CHANNELS 3 Xrotation Yrotation Zrotation
							JOINT Neck
							{
								OFFSET 0.000000 10.314075 0.188496
								CHANNELS 3 Xrotation Yrotation Zrotation
								JOINT Head
								{
									OFFSET 0.000000 7.643700 -2.377400
									CHANNELS 3 Xrotation Yrotation Zrotation
									JOINT HeadTop_End
									{
										OFFSET 0.000000 43.788605 -13.619600
										CHANNELS 3 Xrotation Yrotation Zrotation
										End Site
										{
											OFFSET 0 0 0
										}
									}
								}
							}
						}
						JOINT LeftShoulder_virtual
						{
							OFFSET 0.000000 0.000000 0.000000
							CHANNELS 3 Xrotation Yrotation Zrotation
							JOINT LeftShoulder
							{
								OFFSET 2.196100 4.412489 0.087492
								CHANNELS 3 Xrotation Yrotation Zrotation
								JOINT LeftShoulder_split
								{
									OFFSET 2.196100 4.412489 0.087492
									CHANNELS 3 Xrotation Yrotation Zrotation
									JOINT LeftArm
									{
										OFFSET 8.771219 -2.981674 -0.026999
										CHANNELS 3 Xrotation Yrotation Zrotation
										JOINT LeftForeArm
										{
											OFFSET 8.512804 0.000000 -0.000000
											CHANNELS 3 Xrotation Yrotation Zrotation
											JOINT LeftHand
											{
												OFFSET 18.484802 0.000000 -0.000000
												CHANNELS 3 Xrotation Yrotation Zrotation
												End Site
												{
													OFFSET 0 0 0
												}
											}
										}
									}
								}
							}
						}
						JOINT RightShoulder_virtual
						{
							OFFSET 0.000000 0.000000 0.000000
							CHANNELS 3 Xrotation Yrotation Zrotation
							JOINT RightShoulder
							{
								OFFSET -2.196100 4.412496 0.070690
								CHANNELS 3 Xrotation Yrotation Zrotation
								JOINT RightShoulder_split
								{
									OFFSET -2.196100 4.412496 0.070690
									CHANNELS 3 Xrotation Yrotation Zrotation
									JOINT RightArm
									{
										OFFSET -8.771282 -2.981682 -0.094208
										CHANNELS 3 Xrotation Yrotation Zrotation
										JOINT RightForeArm
										{
											OFFSET -8.494598 0.000000 0.000000
											CHANNELS 3 Xrotation Yrotation Zrotation
											JOINT RightHand
											{
												OFFSET -18.483803 0.000000 0.000001
												CHANNELS 3 Xrotation Yrotation Zrotation
												End Site
												{
													OFFSET 0 0 0
												}
											}
										}
									}
								}
							}
						}
					}
				}
			}
		}
	}
}
MOTION
Frames: 11
Frame Time: 0.03333333
-4.623232 32.113430 37.114243 0.000000 0.000000 0.000000 23.959766 13.506878 -8.098548 -30.882888 -7.266249 -6.495295 32.306699 7.040890 -4.288932 -25.617955 4.584972 9.603276 -4.334915 0.889443 -1.440747 0.000000 0.000000 0.000000 24.387798 13.101031 -8.193930 -48.464082 -7.309403 -13.968444 48.970366 2.060629 1.258035 5.406066 1.137011 16.077442 -22.218293 3.099553 -2.461888 0.000000 0.000000 0.000000 24.495987 9.775872 -8.575931 8.098595 1.112942 -2.120298 0.511487 2.436555 -0.458835 0.628042 0.302300 -0.227090 0.000000 0.000000 0.000000 -0.113356 2.437741 -0.351102 -13.413260 0.214987 0.022636 -8.727213 3.704832 -3.295915 0.000000 0.000000 0.000000 -0.867217 2.756140 -0.612299 0.925400 -1.392402 -19.232380 -0.788402 2.679001 -1.632906 16.022763 -6.779597 -44.846588 2.621723 -64.426190 1.102834 0.000000 0.000000 0.000000 -0.175471 2.710128 -0.554222 1.107347 3.829504 18.482847 5.174312 4.968549 -2.859236 11.798603 -12.612184 50.427249 -1.726420 68.624973 2.096238 0.000000 0.000000 0.000000 
-4.433985 31.692625 39.711456 0.000000 0.000000 0.000000 24.194663 13.475971 -8.482017 -23.911522 -11.343988 -3.764910 29.457175 7.308297 -4.774910 -30.540200 2.703614 7.895490 -2.822942 1.011457 -0.231145 0.000000 0.000000 0.000000 24.791854 14.267786 -9.112470 -56.302069 -3.917195 -14.601454 46.319334 1.219394 2.095765 7.799877 1.885823 17.784120 -18.619874 2.686239 -1.597712 0.000000 0.000000 0.000000 23.844817 9.854601 -8.735312 8.015520 0.484185 -2.098654 0.659935 2.394095 -0.372973 0.882528 0.462171 0.049989 0.000000 0.000000 0.000000 -0.056413 2.413848 -0.313531 -13.675389 -0.008150 0.088904 -8.777486 3.115552 -3.042423 0.000000 0.000000 0.000000 -0.731409 2.705624 -0.517873 0.871986 -1.230768 -18.997585 -1.022743 2.102946 -1.314449 16.852887 -7.463682 -45.067753 2.665331 -64.326291 1.151955 0.000000 0.000000 0.000000 -0.020800 2.675471 -0.573999 1.076863 3.702649 18.108821 5.312204 5.231099 -2.070380 12.026023 -12.395330 50.100988 -2.002834 68.462230 2.176624 0.000000 0.000000 0.000000 
-4.278095 31.005804 42.130676 0.000000 0.000000 0.000000 24.252219 13.787893 -9.046178 -18.203526 -15.413831 0.256086 28.882599 5.511389 -4.896754 -31.150744 0.384864 2.879989 -5.197310 0.919321 2.633883 0.000000 0.000000 0.000000 24.862802 15.232457 -10.028884 -63.811705 -1.563872 -14.678811 43.872846 -0.244441 3.285898 8.742315 1.850642 17.953034 -13.181963 2.230740 -0.794167 0.000000 0.000000 0.000000 23.083181 10.291040 -8.918565 8.058179 -0.225081 -2.140557 0.832537 2.382778 -0.307172 1.074072 0.739209 0.334362 0.000000 0.000000 0.000000 -0.028728 2.388153 -0.304677 -13.750234 -0.232518 0.293162 -8.863414 2.409889 -2.803001 0.000000 0.000000 0.000000 -0.576423 2.662141 -0.458857 0.804407 -1.017057 -18.619984 -1.095519 1.336270 -0.816951 17.512299 -7.663007 -45.736145 2.569177 -64.680737 1.199496 0.000000 0.000000 0.000000 0.165651 2.637534 -0.604841 1.070312 3.592431 17.690028 5.300581 5.332021 -1.284059 12.492237 -12.063154 50.013732 -2.016744 68.370351 1.964734 0.000000 0.000000 0.000000 
-4.218549 30.239149 44.451656 0.000000 0.000000 0.000000 24.405666 14.475669 -9.723696 -12.433154 -18.088281 4.165159 29.051834 4.387582 -4.846812 -31.488852 -1.986116 -0.865704 -8.278549 0.667036 5.065425 0.000000 0.000000 0.000000 24.808847 16.400140 -10.730192 -70.377115 -0.118948 -14.299947 41.845782 -1.931222 4.550293 7.823784 1.042537 16.217704 -6.630540 1.977025 -0.373291 0.000000 0.000000 0.000000 22.374928 11.225608 -9.131230 8.235686 -1.027624 -2.120331 1.026451 2.329177 -0.253109 1.191003 1.061502 0.708207 0.000000 0.000000 0.000000 -0.056834 2.304317 -0.287890 -13.615981 -0.343279 0.476626 -9.043739 1.824912 -2.717406 0.000000 0.000000 0.000000 -0.384307 2.575436 -0.414688 0.743738 -0.804709 -18.185234 -1.008513 0.516661 -0.356282 17.915561 -7.384149 -46.784713 2.307987 -65.101928 1.222878 0.000000 0.000000 0.000000 0.363087 2.544149 -0.638337 1.090123 3.487746 17.279641 5.136642 5.292676 -0.469036 13.302898 -11.584363 50.138865 -1.829877 68.359299 1.558991 0.000000 0.000000 0.000000 
-4.222330 29.478817 46.624985 0.000000 0.000000 0.000000 24.409038 15.590494 -10.299192 -6.327351 -18.877316 6.838483 29.274915 4.928994 -4.472452 -33.888151 -3.308802 -1.802675 -9.514593 0.666960 5.843131 0.000000 0.000000 0.000000 24.409605 17.372996 -11.067078 -75.975602 0.574029 -13.566791 40.430458 -3.641325 5.718591 6.467831 -0.029425 12.693385 -0.585928 2.085343 -0.378979 0.000000 0.000000 0.000000 21.674483 12.683438 -9.410319 8.521698 -1.862626 -1.989416 1.210142 2.186083 -0.194572 1.306704 1.317763 0.870162 0.000000 0.000000 0.000000 -0.133445 2.133132 -0.229258 -13.335830 -0.293340 0.507556 -9.307528 1.577468 -2.881946 0.000000 0.000000 0.000000 -0.184620 2.422321 -0.360352 0.725981 -0.651560 -17.745091 -0.729889 -0.108191 -0.061461 18.018285 -6.680962 -48.141943 1.849643 -65.178344 1.149757 0.000000 0.000000 0.000000 0.535663 2.373377 -0.634036 1.118352 3.353671 16.991216 4.998730 5.394970 0.134039 14.421632 -11.078976 50.521055 -1.595963 68.458877 1.149986 0.000000 0.000000 0.000000 
-4.216344 28.822487 48.744896 0.000000 0.000000 0.000000 24.283565 16.864768 -10.650394 -0.809352 -18.330235 8.046864 30.011042 6.491391 -4.027688 -37.901270 -3.062132 -1.350462 -8.430906 1.131835 4.491431 0.000000 0.000000 0.000000 23.538082 17.632862 -11.001855 -80.331521 0.376925 -12.785836 39.908659 -5.083445 6.629352 6.412241 -1.011000 8.859852 2.795681 2.297219 -0.554983 0.000000 0.000000 0.000000 21.167315 14.222701 -9.723848 8.865804 -2.676748 -1.768466 1.357872 1.947616 -0.117867 1.368835 1.296997 0.811474 0.000000 0.000000 0.000000 -0.226506 1.873578 -0.121215 -12.968110 -0.098363 0.369183 -9.550350 1.763561 -3.281777 0.000000 0.000000 0.000000 0.024437 2.178194 -0.274447 0.755360 -0.631883 -17.333558 -0.296343 -0.369443 -0.038547 17.937395 -5.643533 -49.660297 1.263610 -64.724280 0.980400 0.000000 0.000000 0.000000 0.677670 2.132984 -0.553059 1.141550 3.132354 16.874824 4.713162 5.821591 0.530602 15.687401 -10.697637 51.085256 -1.429320 68.756338 0.877326 0.000000 0.000000 0.000000 
-4.167623 28.341059 50.728859 0.000000 0.000000 0.000000 23.804843 18.271909 -10.935050 3.566658 -16.627356 8.114225 31.692242 8.538960 -4.011394 -40.914872 -2.245906 0.029765 -9.306596 1.599684 2.418830 0.000000 0.000000 0.000000 22.352067 17.900104 -10.838956 -82.804125 -0.423048 -12.031467 40.208641 -5.394790 7.015580 8.090668 -1.689415 6.144190 3.206257 2.243242 -0.567205 0.000000 0.000000 0.000000 20.808888 15.537536 -10.024757 9.174016 -3.329091 -1.482752 1.482450 1.631342 -0.023320 1.388489 0.952393 0.699559 0.000000 0.000000 0.000000 -0.311083 1.579564 0.012828 -12.577902 0.197950 0.123598 -9.699909 2.391829 -3.821975 0.000000 0.000000 0.000000 0.175567 1.886758 -0.159236 0.806772 -0.754870 -16.946218 0.061580 -0.277772 -0.359274 17.826485 -4.371997 -51.153172 0.639598 -63.814355 0.728742 0.000000 0.000000 0.000000 0.732962 1.852593 -0.413089 1.179500 2.788249 16.951790 4.194353 6.629639 0.488477 16.867401 -10.581977 51.742081 -1.445387 69.108305 0.875938 0.000000 0.000000 0.000000 
-4.010436 28.049271 52.698898 0.000000 0.000000 0.000000 22.857926 19.774347 -11.256644 5.575217 -14.869904 8.083773 35.445174 9.147270 -4.180324 -38.707389 -1.334899 -0.497863 -18.071851 1.731239 1.829488 0.000000 0.000000 0.000000 21.079038 18.553084 -10.893477 -82.875207 -1.814178 -11.251811 41.285191 -4.588296 6.900526 10.056480 -1.996189 4.282702 2.136724 1.854772 -0.311204 0.000000 0.000000 0.000000 20.472068 16.554917 -10.454536 9.483111 -3.740151 -1.119206 1.562387 1.318165 0.070263 1.356123 0.492443 0.360896 0.000000 0.000000 0.000000 -0.349455 1.311214 0.121340 -12.216564 0.481224 -0.107195 -9.689648 3.263941 -4.371612 0.000000 0.000000 0.000000 0.231318 1.595835 -0.043286 0.856323 -1.013109 -16.588830 0.341379 0.101552 -0.813465 17.750615 -2.996616 -52.349056 0.077394 -62.839113 0.413721 0.000000 0.000000 0.000000 0.702731 1.588393 -0.227633 1.244021 2.369822 17.251890 3.527786 7.481203 0.095527 17.781282 -10.695320 52.356057 -1.575195 69.274067 1.104549 0.000000 0.000000 0.000000 
-3.753726 27.958202 54.714714 0.000000 0.000000 0.000000 21.802918 21.253715 -11.883085 4.970365 -14.047356 7.792594 41.300535 8.695553 -4.307278 -31.223800 -0.561237 -1.913473 -33.563563 1.669160 1.659349 0.000000 0.000000 0.000000 20.036712 19.617673 -11.435489 -80.609476 -3.811031 -10.454027 42.903861 -3.476297 6.396745 10.720643 -2.134692 2.622995 0.930775 1.185531 0.103275 0.000000 0.000000 0.000000 20.163318 17.392616 -11.048822 9.829420 -3.843832 -0.596183 1.574915 1.057973 0.131803 1.027883 0.252990 0.052072 0.000000 0.000000 0.000000 -0.345121 1.122056 0.158393 -11.871413 0.766122 -0.200552 -9.621164 4.176781 -4.752358 0.000000 0.000000 0.000000 0.225612 1.341349 0.045431 0.889143 -1.325521 -16.255521 0.355698 0.556569 -1.352828 17.937849 -1.663392 -53.002780 -0.344144 -62.312048 0.091050 0.000000 0.000000 0.000000 0.630804 1.397342 -0.064412 1.303320 1.972511 17.697493 2.918241 8.027497 -0.610515 18.321778 -10.808090 52.698014 -1.688520 69.093996 1.448895 0.000000 0.000000 0.000000 
-3.432974 28.171350 56.790352 0.000000 0.000000 0.000000 20.872604 22.709815 -12.864637 1.845848 -13.697203 6.888359 48.060005 9.175259 -4.185156 -22.223407 0.275795 -0.767119 -49.193973 2.275919 0.299552 0.000000 0.000000 0.000000 19.855401 21.186181 -12.529544 -76.739136 -6.093535 -9.827886 44.456540 -2.375589 5.730596 9.803966 -1.961139 1.362825 0.666475 0.504890 0.312633 0.000000 0.000000 0.000000 19.723746 18.432191 -11.764508 10.239649 -3.562078 0.122449 1.528939 0.900393 0.124505 0.439465 0.506878 -0.320807 0.000000 0.000000 0.000000 -0.354076 1.027779 0.107893 -11.538161 1.033485 -0.091243 -9.758266 4.967495 -4.866856 0.000000 0.000000 0.000000 0.154287 1.183237 0.079319 0.916651 -1.518069 -15.978362 0.199262 0.710226 -1.918890 18.430325 -0.656309 -53.021611 -0.550553 -62.577893 -0.148898 0.000000 0.000000 0.000000 0.536143 1.304668 0.010286 1.317596 1.747424 18.212039 2.610959 7.951500 -1.493475 18.407126 -10.662976 52.537562 -1.643174 68.415164 1.768282 0.000000 0.000000 0.000000 
-3.026655 28.740828 58.938416 0.000000 0.000000 0.000000 20.319789 23.596728 -13.918676 -4.059446 -14.285728 5.683951 55.049552 9.937754 -3.486162 -12.964220 2.016567 0.249229 -58.982618 4.330732 -2.189413 0.000000 0.000000 0.000000 20.431138 22.759273 -13.854853 -71.967914 -8.595302 -9.561270 45.389182 -1.290508 5.095513 7.091722 -1.157556 0.902883 1.656764 0.091686 0.138847 0.000000 0.000000 0.000000 19.134252 19.561095 -12.521585 10.697520 -2.972074 0.897347 1.421355 0.866863 0.034793 -0.047776 0.875770 -0.538041 0.000000 0.000000 0.000000 -0.406168 0.997590 -0.018567 -11.330585 1.258668 0.202626 -10.288109 5.537856 -4.719776 0.000000 0.000000 0.000000 0.072118 1.122093 0.046943 0.929506 -1.507873 -15.865845 -0.276670 0.560661 -2.401449 19.023250 -0.226251 -52.441830 -0.450412 -63.717353 -0.189886 0.000000 0.000000 0.000000 0.475998 1.292535 0.004150 1.279350 1.805867 18.737881 2.596895 7.335938 -2.259720 18.045681 -10.269828 51.914236 -1.360655 67.308939 1.938698 0.000000 0.000000 0.000000 
